<?xml version="1.0" standalone="no"?>
<!DOCTYPE svg PUBLIC "-//W3C//DTD SVG 20010904//EN"
 "http://www.w3.org/TR/2001/REC-SVG-20010904/DTD/svg10.dtd">
<svg version="1.0" xmlns="http://www.w3.org/2000/svg"
 width="206.000000pt" height="204.000000pt" viewBox="0 0 206.000000 204.000000"
 preserveAspectRatio="xMidYMid meet">

<g transform="translate(0.000000,204.000000) scale(0.100000,-0.100000)"
fill="#000000" stroke="none">
<path d="M489 1946 c-120 -34 -240 -127 -307 -239 -51 -85 -62 -141 -61 -317
l0 -155 28 55 c36 69 114 143 189 178 l57 27 420 0 420 0 66 -32 c82 -41 150
-111 192 -201 l32 -67 3 -361 c2 -229 0 -382 -7 -419 -23 -123 -96 -229 -195
-281 -30 -15 -53 -31 -51 -34 6 -10 200 -11 275 0 188 26 351 164 411 347 18
52 19 97 19 577 0 574 -1 581 -62 684 -67 112 -189 205 -312 238 -71 19 -1048
19 -1117 0z"/>
</g>
</svg>
